<svg width="512" height="512" viewBox="0 0 512 512" fill="none" xmlns="http://www.w3.org/2000/svg">
  <rect width="512" height="512" rx="96" fill="#162033"/>
  <path d="M156 164C156 141.909 173.909 124 196 124H316C338.091 124 356 141.909 356 164V348C356 370.091 338.091 388 316 388H196C173.909 388 156 370.091 156 348V164Z" fill="#F8F6EF"/>
  <path d="M206 176V336" stroke="#162033" stroke-width="20" stroke-linecap="round"/>
  <path d="M306 176V336" stroke="#162033" stroke-width="20" stroke-linecap="round"/>
  <path d="M176 220H336" stroke="#162033" stroke-width="20" stroke-linecap="round"/>
  <path d="M176 292H336" stroke="#162033" stroke-width="20" stroke-linecap="round"/>
  <path d="M206 220C239 220 239 292 272 292C305 292 305 220 336 220" stroke="#5AD1BE" stroke-width="18" stroke-linecap="round"/>
  <path d="M176 292C209 292 209 220 242 220C275 220 275 292 306 292" stroke="#FFB23F" stroke-width="18" stroke-linecap="round"/>
  <circle cx="206" cy="220" r="20" fill="#F05D5E"/>
  <circle cx="306" cy="292" r="20" fill="#4F7DFF"/>
</svg>
